<?xml version="1.0" encoding="UTF-8"?>
<svg width="33px" height="32px" viewBox="0 0 33 32" version="1.1" xmlns="http://www.w3.org/2000/svg" xmlns:xlink="http://www.w3.org/1999/xlink">
    <title>编组 8</title>
    <g id="应用平台" stroke="none" stroke-width="1" fill="none" fill-rule="evenodd">
        <g transform="translate(-147.000000, -1242.000000)" id="编组-8">
            <g transform="translate(147.385000, 1242.000000)">
                <g id="编组-7备份-8" fill="#000000" fill-rule="nonzero" opacity="0">
                    <rect id="矩形备份" x="0" y="0" width="31.68" height="31.68"></rect>
                </g>
                <g id="编组-2" transform="translate(1.500000, 1.500000)">
                    <g id="大数据备份" fill="#000000" fill-rule="nonzero">
                        <rect id="矩形" opacity="0" x="0" y="0" width="28.8" height="28.8"></rect>
                        <path d="M19.7445374,13.1506807 C19.693308,13.1506807 19.6429136,13.1541075 19.5932967,13.1600973 L17.9752348,10.6532804 C18.2289632,10.343024 18.3814997,9.94689554 18.3814997,9.51575023 C18.3814997,8.52335578 17.5741245,7.7159518 16.5817013,7.7159518 C15.589278,7.7159518 14.7819028,8.52335578 14.7819028,9.51575023 C14.7819028,10.0847745 15.0476395,10.5926344 15.4612187,10.9226742 L12.1601581,17.5300366 C12.0985073,17.522806 12.0364921,17.5191236 11.9744189,17.5190075 C11.8572837,17.5190712 11.7405045,17.531904 11.6261507,17.5572784 L10.0405715,15.0611163 C10.1628778,14.86354 10.2275207,14.635709 10.2272034,14.4033404 C10.2272034,13.7115267 9.66635736,13.1506807 8.97454364,13.1506807 C8.28272993,13.1506807 7.72188396,13.7115267 7.72188396,14.4033404 C7.72188396,15.0951541 8.28272995,15.6560001 8.97454364,15.6560001 C9.02266304,15.6560001 9.07009135,15.6530053 9.11679972,15.6477354 L10.7026093,18.1442431 C10.492652,18.4157967 10.3674149,18.7561745 10.3674149,19.1260115 C10.3674149,20.0135281 11.0869023,20.7330155 11.9744189,20.7330155 C12.8619354,20.7330155 13.5814229,20.0135281 13.5814229,19.1260115 C13.5814229,18.6969684 13.4129618,18.307492 13.1389604,18.0192938 L16.48935,11.3132161 C16.6811931,11.3230468 16.8733704,11.3020168 17.058547,11.2509287 L18.6736429,13.753138 C18.5544141,13.9490223 18.4915197,14.1739952 18.4918777,14.4033116 C18.4918777,15.0951253 19.0527237,15.6559713 19.7445374,15.6559713 C20.4363511,15.6559713 20.9971971,15.0951253 20.9971971,14.4033116 C20.9971971,13.7115267 20.4363511,13.1506807 19.7445374,13.1506807 L19.7445374,13.1506807 Z M15.8761803,9.51577903 C15.8761803,9.1267634 16.1926568,8.81025806 16.5817012,8.81025806 C16.9707457,8.81025806 17.2872222,9.12676343 17.2872222,9.51577903 C17.2872222,9.90479464 16.9707457,10.2213 16.5817012,10.2213 C16.1926568,10.2213 15.8761803,9.90479467 15.8761803,9.51577903 Z" id="形状"></path>
                    </g>
                    <polygon id="路径-2" stroke="#303133" stroke-width="1.54" stroke-linejoin="round" points="7.4041034 4.32 20.6794165 4.32 26.7017149 14.908773 20.6794165 25.7017177 7.4041034 25.7017177 1.44 14.908773"></polygon>
                </g>
            </g>
        </g>
    </g>
</svg>