<?xml version="1.0" encoding="UTF-8"?>
<svg width="33px" height="33px" viewBox="0 0 33 33" version="1.1" xmlns="http://www.w3.org/2000/svg" xmlns:xlink="http://www.w3.org/1999/xlink">
    <title>编组 13</title>
    <g id="应用平台" stroke="none" stroke-width="1" fill="none" fill-rule="evenodd">
        <g id="应用平台鼠标hover状态" transform="translate(-147.000000, -830.000000)" fill="#154AD8" fill-rule="nonzero">
            <g id="编组-13" transform="translate(147.385000, 830.500000)">
                <g id="典型案例备份" transform="translate(4.500000, 3.500000)">
                    <rect id="矩形" opacity="0" x="0.5" y="0.5" width="25.5" height="25.5"></rect>
                    <path d="M4.32648572,6.55270764 L10.0606298,6.55270764 C10.4110497,6.55270764 10.6977569,6.26600043 10.6977569,5.91558053 C10.6977569,5.56516063 10.4110497,5.27845342 10.0606298,5.27845342 L4.32648572,5.27845342 C3.97606582,5.27845342 3.68935861,5.56516063 3.68935861,5.91558053 C3.68935861,6.26600043 3.97606582,6.55270764 4.32648572,6.55270764 Z M5.60073997,11.6497246 L4.32648572,11.6497246 C3.97606582,11.6497246 3.68935861,11.9364318 3.68935861,12.2868518 C3.68935861,12.6372717 3.97606582,12.9239789 4.32648572,12.9239789 L5.60073997,12.9239789 C5.95115988,12.9239789 6.23786709,12.6372717 6.23786709,12.2868518 C6.23786709,11.9364318 5.95115988,11.6497246 5.60073997,11.6497246 Z" id="形状"></path>
                    <path d="M25.9569515,14.994642 C25.8932388,14.7716475 25.6702443,14.5805094 25.4472498,14.548653 L21.528918,13.9752386 L21.528918,4.32276272 C21.528918,2.22024322 19.8086748,0.5 17.7061553,0.5 L4.32648572,0.5 C2.22396622,0.5 0.503723,2.22024322 0.503723,4.32276272 L0.503723,22.1623221 C0.503723,24.2648416 2.22396622,25.9850848 4.32648572,25.9850849 L11.3348841,25.9850849 C11.4304531,25.9850849 11.5260222,25.9532285 11.6215913,25.9213721 L16.6867519,23.2772946 L21.7519125,25.9213721 C21.974907,26.0487976 22.2297578,26.0169412 22.420896,25.8576594 C22.6120341,25.730234 22.7076032,25.4753831 22.6757468,25.2205323 L21.7200561,19.5819573 L25.7976697,15.5999128 C25.9569515,15.4724874 26.0206642,15.2176365 25.9569515,14.994642 L25.9569515,14.994642 Z M10.793326,24.7108306 L4.32648572,24.7108306 C2.92480606,24.7108306 1.77797725,23.5640018 1.77797725,22.1623221 L1.77797725,4.32276272 C1.77797725,2.92108306 2.92480606,1.77425425 4.32648572,1.77425425 L17.7061553,1.77425425 C19.1078349,1.77425425 20.2546638,2.92108306 20.2546638,4.32276272 L20.2546638,13.7841005 L19.7768184,13.7203878 L17.2601663,8.59151445 C17.1645972,8.36851996 16.9416027,8.24109454 16.6867519,8.24109452 C16.4319011,8.24109449 16.2089065,8.36851993 16.1133375,8.59151445 L13.5966853,13.7203878 L7.95811031,14.548653 C7.70325945,14.5805094 7.51212133,14.7397912 7.44840861,14.994642 C7.38469589,15.2176365 7.44840861,15.4724874 7.6076904,15.6317691 L11.685304,19.6138136 L10.793326,24.7108306 Z M20.5732273,18.9448302 C20.4139455,19.1041119 20.3502328,19.2952501 20.3820892,19.5182446 L21.1784981,24.2011289 L16.9734591,22.0030404 C16.87789,21.9393276 16.7823209,21.9393276 16.6867519,21.9393276 C16.5911828,21.9393276 16.4956138,21.971184 16.4000447,22.0030404 L12.1950057,24.2011289 L13.0232709,19.5182446 C13.0551273,19.2952501 12.9914146,19.1041119 12.8321328,18.9448302 L9.4235027,15.6317691 L14.106387,14.9309293 C14.2975252,14.8990729 14.4886633,14.7716475 14.5842324,14.5805094 L16.6867519,10.3117577 L18.7892714,14.5805094 C18.8848405,14.7716475 19.0759786,14.8990729 19.2671167,14.9309293 L23.9818574,15.6317691 L20.5732273,18.9448302 Z" id="形状"></path>
                </g>
                <g id="编组-7备份-3" opacity="0">
                    <rect id="矩形备份" x="0" y="0" width="31.68" height="31.68"></rect>
                </g>
            </g>
        </g>
    </g>
</svg>