<?xml version="1.0" encoding="UTF-8"?>
<svg width="33px" height="33px" viewBox="0 0 33 33" version="1.1" xmlns="http://www.w3.org/2000/svg" xmlns:xlink="http://www.w3.org/1999/xlink">
    <title>编组 16</title>
    <g id="应用平台" stroke="none" stroke-width="1" fill="none" fill-rule="evenodd">
        <g id="应用平台鼠标hover状态" transform="translate(-147.000000, -718.000000)" fill="#154AD8" fill-rule="nonzero">
            <g id="编组-16" transform="translate(147.385000, 718.500000)">
                <g id="最新应用备份" transform="translate(4.000000, 4.000000)">
                    <rect id="矩形" opacity="0" x="0" y="0" width="24" height="24"></rect>
                    <path d="M20.6507813,14.5054688 C21.2882813,14.5054688 21.8085938,15.0234375 21.8085938,15.6632813 L21.8085938,21.0210938 C21.8085938,21.6585938 21.290625,22.1789063 20.6507813,22.1789063 L15.2953125,22.1789063 C14.6578125,22.1789063 14.1375,21.6609375 14.1375,21.0210938 L14.1375,15.6632813 C14.1375,15.0257813 14.6554688,14.5054688 15.2953125,14.5054688 L20.6507813,14.5054688 M20.6507813,13.3992187 L15.2953125,13.3992187 C14.04375,13.3992187 13.03125,14.4140625 13.03125,15.6632813 L13.03125,21.0210938 C13.03125,22.2726563 14.0460938,23.2851563 15.2953125,23.2851563 L20.653125,23.2851563 C21.9046875,23.2851563 22.9171875,22.2703125 22.9171875,21.0210938 L22.9171875,15.6632813 C22.9148438,14.4117188 21.9023438,13.3992187 20.6507813,13.3992187 Z M7.6921875,14.5101562 C8.3296875,14.5101562 8.85,15.028125 8.85,15.6679687 L8.85,21.0234375 C8.85,21.6609375 8.33203125,22.18125 7.6921875,22.18125 L2.334375,22.18125 C1.696875,22.18125 1.1765625,21.6632813 1.1765625,21.0234375 L1.1765625,15.665625 C1.1765625,15.028125 1.69453125,14.5078125 2.334375,14.5078125 L7.6921875,14.5078125 M7.6921875,13.4015625 L2.334375,13.4015625 C1.08515625,13.4015625 0.0703125,14.4164063 0.0703125,15.665625 L0.0703125,21.0234375 C0.0703125,22.275 1.08515625,23.2875 2.334375,23.2875 L7.6921875,23.2875 C8.94375,23.2875 9.95625,22.2726563 9.95625,21.0234375 L9.95625,15.665625 C9.95625,14.4164063 8.94140625,13.4015625 7.6921875,13.4015625 L7.6921875,13.4015625 Z M7.6921875,2.053125 C8.3296875,2.053125 8.85,2.57109375 8.85,3.2109375 L8.85,8.56875 C8.85,9.20625 8.33203125,9.7265625 7.6921875,9.7265625 L2.334375,9.7265625 C1.696875,9.7265625 1.1765625,9.20859375 1.1765625,8.56875 L1.1765625,3.20859375 C1.1765625,2.57109375 1.69453125,2.05078125 2.334375,2.05078125 L7.6921875,2.05078125 M7.6921875,0.94453125 L2.334375,0.94453125 C1.08515625,0.94453125 0.0703125,1.959375 0.0703125,3.20859375 L0.0703125,8.56640625 C0.0703125,9.81796875 1.08515625,10.8304688 2.334375,10.8304688 L7.6921875,10.8304688 C8.94375,10.8304688 9.95625,9.815625 9.95625,8.56640625 L9.95625,3.20859375 C9.95625,1.959375 8.94140625,0.94453125 7.6921875,0.94453125 L7.6921875,0.94453125 Z M19.7414063,10.059375 L23.1492188,6.6515625 C23.6226563,6.178125 23.8828125,5.55234375 23.8828125,4.88203125 C23.8828125,4.21171875 23.6226563,3.5859375 23.1492188,3.1125 L20.9015625,0.8671875 C20.6859375,0.6515625 20.334375,0.6515625 20.11875,0.8671875 C19.903125,1.0828125 19.903125,1.434375 20.11875,1.65 L22.3664063,3.89765625 C22.6289063,4.16015625 22.7742188,4.51171875 22.7742188,4.884375 C22.7742188,5.25703125 22.6289063,5.60625 22.3664063,5.87109375 L18.9585938,9.2765625 C18.4148438,9.8203125 17.53125,9.8203125 16.9875,9.2765625 L13.5773438,5.86875 C13.0335937,5.325 13.0335937,4.44140625 13.5773438,3.89765625 L15.825,1.65 C16.040625,1.434375 16.040625,1.0828125 15.825,0.8671875 C15.609375,0.6515625 15.2578125,0.6515625 15.0421875,0.8671875 L12.7945313,3.11484375 C11.8195312,4.08984375 11.8195312,5.6765625 12.7945313,6.6515625 L16.2023438,10.059375 C16.6898438,10.546875 17.3296875,10.790625 17.971875,10.790625 C18.6140625,10.790625 19.2539063,10.546875 19.7414063,10.059375 Z" id="形状"></path>
                </g>
                <g id="编组-7" opacity="0">
                    <rect id="矩形备份" x="0" y="0" width="31.68" height="31.68"></rect>
                </g>
            </g>
        </g>
    </g>
</svg>