<?xml version="1.0" encoding="UTF-8"?>
<svg width="33px" height="32px" viewBox="0 0 33 32" version="1.1" xmlns="http://www.w3.org/2000/svg" xmlns:xlink="http://www.w3.org/1999/xlink">
    <title>编组 9</title>
    <g id="应用平台" stroke="none" stroke-width="1" fill="none" fill-rule="evenodd">
        <g transform="translate(-147.000000, -1186.000000)" fill="#303133" fill-rule="nonzero" id="编组-9">
            <g transform="translate(147.385000, 1186.000000)">
                <g id="编组-7备份-7" opacity="0">
                    <rect id="矩形备份" x="0" y="0" width="31.68" height="31.68"></rect>
                </g>
                <g id="办公备份" transform="translate(1.500000, 1.500000)">
                    <rect id="矩形" opacity="0" x="0" y="0" width="28.8" height="28.8"></rect>
                    <path d="M26.64,2.88 L2.16,2.88 C1.728,2.88 1.44,3.168 1.44,3.6 L1.44,21.6 C1.44,22.032 1.728,22.32 2.16,22.32 L11.52,22.32 L11.52,25.2 L6.48,25.2 C6.12,25.2 5.76,25.56 5.76,25.92 C5.76,26.28 6.12,26.64 6.48,26.64 L22.32,26.64 C22.68,26.64 23.04,26.28 23.04,25.92 C23.04,25.56 22.68,25.2 22.32,25.2 L17.28,25.2 L17.28,22.32 L26.64,22.32 C27.072,22.32 27.36,22.032 27.36,21.6 L27.36,3.6 C27.36,3.168 27.072,2.88 26.64,2.88 Z M25.92,4.32 L25.92,16.56 L2.88,16.56 L2.88,4.32 L25.92,4.32 Z M15.84,25.2 L12.96,25.2 L12.96,22.32 L15.84,22.32 L15.84,25.2 Z M2.88,20.88 L2.88,18 L25.92,18 L25.92,20.88 L2.88,20.88 Z" id="形状"></path>
                </g>
            </g>
        </g>
    </g>
</svg>