<?xml version="1.0" encoding="UTF-8"?>
<svg width="33px" height="33px" viewBox="0 0 33 33" version="1.1" xmlns="http://www.w3.org/2000/svg" xmlns:xlink="http://www.w3.org/1999/xlink">
    <title>编组 15</title>
    <g id="应用平台" stroke="none" stroke-width="1" fill="none" fill-rule="evenodd">
        <g transform="translate(-147.000000, -774.000000)" fill="#303133" fill-rule="nonzero" id="编组-15">
            <g transform="translate(147.385000, 774.500000)">
                <g id="推荐备份" transform="translate(4.000000, 4.000000)">
                    <rect id="矩形" opacity="0" x="0" y="0" width="24" height="24"></rect>
                    <path d="M20.4,0 L3.6,0 C1.62,0 0,1.62 0,3.6 L0,23.4 C0,23.61 0.09,23.79 0.27,23.88 C0.42,24 0.63,24.03 0.81,23.94 L12,19.83 L23.19,23.94 C23.25,24 23.34,24 23.4,24 C23.52,24 23.64,23.97 23.73,23.88 C23.88,23.76 24,23.58 24,23.4 L24,3.6 C24,1.62 22.38,0 20.4,0 L20.4,0 Z M22.8,22.53 L12.21,18.63 C12.15,18.6 12.06,18.6 12,18.6 C11.94,18.6 11.85,18.6 11.79,18.63 L1.2,22.53 L1.2,3.6 C1.2,2.28 2.28,1.2 3.6,1.2 L20.4,1.2 C21.72,1.2 22.8,2.28 22.8,3.6 L22.8,22.53 Z" id="形状"></path>
                    <path d="M17.46,8.1 L14.04,7.62 L12.54,4.53 C12.45,4.32 12.24,4.2 12,4.2 C11.76,4.2 11.55,4.32 11.46,4.53 L9.96,7.62 L6.54,8.1 C6.3,8.13 6.12,8.28 6.06,8.52 C6,8.73 6.06,8.97 6.21,9.12 L8.67,11.52 L8.1,14.94 C8.07,15.18 8.16,15.39 8.34,15.54 C8.43,15.63 8.58,15.66 8.7,15.66 C8.79,15.66 8.88,15.63 8.97,15.6 L12,13.95 L15.06,15.57 C15.27,15.69 15.51,15.66 15.69,15.54 C15.87,15.42 15.96,15.18 15.93,14.94 L15.36,11.52 L17.82,9.12 C17.97,8.97 18.03,8.73 17.97,8.52 C17.88,8.31 17.67,8.13 17.46,8.1 L17.46,8.1 Z M14.28,10.89 C14.13,11.04 14.07,11.22 14.1,11.43 L14.52,13.95 L12.27,12.75 C12.18,12.69 12.09,12.69 12,12.69 C11.91,12.69 11.82,12.72 11.73,12.75 L9.48,13.95 L9.9,11.4 C9.93,11.22 9.87,11.01 9.72,10.86 L7.92,9.09 L10.44,8.73 C10.65,8.7 10.8,8.58 10.89,8.4 L12,6.12 L13.11,8.4 C13.2,8.58 13.38,8.7 13.56,8.73 L16.08,9.09 L14.28,10.89 Z" id="形状"></path>
                </g>
                <g id="编组-7备份" opacity="0">
                    <rect id="矩形备份" x="0" y="0" width="31.68" height="31.68"></rect>
                </g>
            </g>
        </g>
    </g>
</svg>