<?xml version="1.0" encoding="UTF-8"?>
<svg width="33px" height="32px" viewBox="0 0 33 32" version="1.1" xmlns="http://www.w3.org/2000/svg" xmlns:xlink="http://www.w3.org/1999/xlink">
    <title>编组 10</title>
    <g id="应用平台" stroke="none" stroke-width="1" fill="none" fill-rule="evenodd">
        <g transform="translate(-147.000000, -1130.000000)" fill="#303133" fill-rule="nonzero" id="编组-10">
            <g transform="translate(147.385000, 1130.000000)">
                <g id="编组-7备份-6" opacity="0">
                    <rect id="矩形备份" x="0" y="0" width="31.68" height="31.68"></rect>
                </g>
                <g id="HR-人事-人事管理-380%备份" transform="translate(1.500000, 1.500000)">
                    <rect id="矩形" opacity="0" x="0" y="0" width="28.8" height="28.8"></rect>
                    <path d="M18.0072,20.2428 C18.0072,20.6892 18.3672,21.0492 18.8136,21.0492 L26.1324,21.0492 C26.5788,21.0492 26.9388,20.6892 26.9388,20.2428 C26.9388,19.7964 26.5788,19.4364 26.1324,19.4364 L18.8136,19.4364 C18.3672,19.4328 18.0072,19.8 18.0072,20.2428 Z M26.1324,22.7196 L18.8136,22.7196 C18.3672,22.7196 18.0072,23.0796 18.0072,23.526 C18.0072,23.9724 18.3672,24.3324 18.8136,24.3324 L26.1324,24.3324 C26.5788,24.3324 26.9388,23.9724 26.9388,23.526 C26.9388,23.0868 26.5788,22.7196 26.1324,22.7196 Z M26.1324,26.01 L18.8136,26.01 C18.3672,26.01 18.0072,26.37 18.0072,26.8164 C18.0072,27.2628 18.3672,27.6228 18.8136,27.6228 L26.1324,27.6228 C26.5788,27.6228 26.9388,27.2628 26.9388,26.8164 C26.9388,26.37 26.5788,26.01 26.1324,26.01 Z M3.6288,25.6536 C3.5028,25.3728 3.4668,24.8724 3.4776,24.624 C3.4776,24.6204 3.4776,24.6132 3.4776,24.6096 C3.5892,19.0116 8.2764,14.4576 13.9248,14.4576 C16.9128,14.4576 19.6344,15.732 21.5496,17.766 L23.6736,17.766 C23.2848,17.2404 22.8528,16.7364 22.374,16.272 C20.9916,14.922 19.332,13.9464 17.532,13.3848 C19.3536,12.2004 20.5632,10.1484 20.5632,7.8156 C20.5632,4.1544 17.586,1.1772 13.9248,1.1772 C10.2636,1.1772 7.2864,4.1544 7.2864,7.8156 C7.2864,10.1484 8.496,12.2004 10.3176,13.3848 C8.514,13.9428 6.858,14.9184 5.4756,16.2648 C3.2112,18.4716 1.926,21.42 1.8612,24.5664 C1.8576,24.7068 1.8396,25.6176 2.1564,26.3196 C2.6244,27.3528 3.7872,27.6156 4.392,27.6048 L16.3296,27.6156 L16.3296,26.0028 L4.3812,25.992 C4.3776,25.992 3.7692,25.9668 3.6288,25.6536 Z M8.8992,7.8156 C8.8992,5.0436 11.1528,2.79 13.9248,2.79 C16.6968,2.79 18.9504,5.0436 18.9504,7.8156 C18.9504,10.5876 16.6968,12.8412 13.9248,12.8412 C11.1528,12.8412 8.8992,10.5876 8.8992,7.8156 Z" id="形状"></path>
                </g>
            </g>
        </g>
    </g>
</svg>